<svg xmlns="http://www.w3.org/2000/svg" viewBox="0 0 800 200">
  <defs><linearGradient id="bg" x1="0%" y1="0%" x2="100%" y2="100%"><stop offset="0%" style="stop-color:#1a1040"/><stop offset="100%" style="stop-color:#0f0c29"/></linearGradient><linearGradient id="accent" x1="0%" y1="0%" x2="100%" y2="0%"><stop offset="0%" style="stop-color:#ef4444"/><stop offset="100%" style="stop-color:#fb923c"/></linearGradient></defs>
  <rect width="800" height="200" rx="16" fill="url(#bg)"/><rect x="0" y="196" width="800" height="4" fill="url(#accent)"/>
  <g transform="translate(50,30)">
    <!-- Performance bars -->
    <rect x="0" y="15" width="200" height="18" rx="4" fill="rgba(255,255,255,0.05)"/>
    <rect x="0" y="15" width="180" height="18" rx="4" fill="rgba(52,211,153,0.3)"/>
    <text x="85" y="29" fill="#34d399" font-family="Inter" font-size="10" font-weight="600" text-anchor="middle">Startup: 45ms</text>
    <rect x="0" y="42" width="200" height="18" rx="4" fill="rgba(255,255,255,0.05)"/>
    <rect x="0" y="42" width="120" height="18" rx="4" fill="rgba(99,102,241,0.3)"/>
    <text x="60" y="56" fill="#6366f1" font-family="Inter" font-size="10" font-weight="600" text-anchor="middle">Size: 12MB</text>
    <rect x="0" y="69" width="200" height="18" rx="4" fill="rgba(255,255,255,0.05)"/>
    <rect x="0" y="69" width="160" height="18" rx="4" fill="rgba(251,146,60,0.3)"/>
    <text x="80" y="83" fill="#fb923c" font-family="Inter" font-size="10" font-weight="600" text-anchor="middle">Memory: 28MB</text>
    <text x="0" y="115" fill="#a0a0b8" font-family="monospace" font-size="11">&lt;PublishAot&gt;true&lt;/PublishAot&gt;</text>
    <text x="0" y="135" fill="#ef4444" font-family="monospace" font-size="11">&lt;PublishTrimmed&gt;true</text>
  </g>
  <text x="500" y="80" fill="#f0f0f5" font-family="Inter, sans-serif" font-size="28" font-weight="700" text-anchor="middle">Chapter 21</text>
  <text x="500" y="110" fill="#a0a0b8" font-family="Inter, sans-serif" font-size="16" text-anchor="middle">Native AOT &amp; Performance</text>
  <text x="500" y="140" fill="#6b6b80" font-family="Inter, sans-serif" font-size="13" text-anchor="middle">⏱ ~35 min · Expert</text>
</svg>
