<svg xmlns="http://www.w3.org/2000/svg" viewBox="0 0 800 200">
  <defs>
    <linearGradient id="bg" x1="0%" y1="0%" x2="100%" y2="100%">
      <stop offset="0%" style="stop-color:#1a1040"/>
      <stop offset="100%" style="stop-color:#0f0c29"/>
    </linearGradient>
    <linearGradient id="accent" x1="0%" y1="0%" x2="100%" y2="0%">
      <stop offset="0%" style="stop-color:#a855f7"/>
      <stop offset="100%" style="stop-color:#6366f1"/>
    </linearGradient>
  </defs>
  <rect width="800" height="200" rx="16" fill="url(#bg)"/>
  <rect x="0" y="196" width="800" height="4" fill="url(#accent)"/>
  <!-- Rocket icon -->
  <g transform="translate(600, 30)" opacity="0.15">
    <path d="M60 140 L80 80 C85 50 100 20 120 10 C140 20 155 50 160 80 L180 140 Z" fill="#a855f7" stroke="none"/>
    <circle cx="120" cy="70" r="15" fill="#6366f1"/>
    <path d="M90 130 L60 160 L80 140 Z" fill="#7c3aed"/>
    <path d="M150 130 L180 160 L160 140 Z" fill="#7c3aed"/>
    <rect x="110" y="140" width="20" height="25" rx="3" fill="#fb923c"/>
  </g>
  <!-- Terminal window -->
  <g transform="translate(50, 40)">
    <rect width="280" height="120" rx="10" fill="rgba(255,255,255,0.05)" stroke="rgba(255,255,255,0.1)" stroke-width="1"/>
    <circle cx="20" cy="15" r="5" fill="#ef4444"/>
    <circle cx="36" cy="15" r="5" fill="#fb923c"/>
    <circle cx="52" cy="15" r="5" fill="#34d399"/>
    <text x="20" y="50" fill="#a855f7" font-family="monospace" font-size="13">$ dotnet new maui</text>
    <text x="20" y="72" fill="#6b6b80" font-family="monospace" font-size="13">Creating project...</text>
    <text x="20" y="94" fill="#34d399" font-family="monospace" font-size="13">✓ Success!</text>
  </g>
  <!-- Chapter info -->
  <text x="400" y="80" fill="#f0f0f5" font-family="Inter, sans-serif" font-size="28" font-weight="700" text-anchor="middle">Chapter 1</text>
  <text x="400" y="110" fill="#a0a0b8" font-family="Inter, sans-serif" font-size="16" text-anchor="middle">Getting Started with .NET MAUI</text>
  <text x="400" y="140" fill="#6b6b80" font-family="Inter, sans-serif" font-size="13" text-anchor="middle">⏱ ~20 min · Beginner</text>
</svg>
