<svg xmlns="http://www.w3.org/2000/svg" viewBox="0 0 800 200">
  <defs><linearGradient id="bg" x1="0%" y1="0%" x2="100%" y2="100%"><stop offset="0%" style="stop-color:#1a1040"/><stop offset="100%" style="stop-color:#0f0c29"/></linearGradient><linearGradient id="accent" x1="0%" y1="0%" x2="100%" y2="0%"><stop offset="0%" style="stop-color:#34d399"/><stop offset="100%" style="stop-color:#fb923c"/></linearGradient></defs>
  <rect width="800" height="200" rx="16" fill="url(#bg)"/><rect x="0" y="196" width="800" height="4" fill="url(#accent)"/>
  <g transform="translate(50,25)">
    <!-- Map -->
    <rect width="250" height="150" rx="10" fill="rgba(255,255,255,0.05)" stroke="rgba(255,255,255,0.1)" stroke-width="1"/>
    <!-- Grid lines -->
    <line x1="0" y1="50" x2="250" y2="50" stroke="rgba(255,255,255,0.04)" stroke-width="1"/>
    <line x1="0" y1="100" x2="250" y2="100" stroke="rgba(255,255,255,0.04)" stroke-width="1"/>
    <line x1="83" y1="0" x2="83" y2="150" stroke="rgba(255,255,255,0.04)" stroke-width="1"/>
    <line x1="166" y1="0" x2="166" y2="150" stroke="rgba(255,255,255,0.04)" stroke-width="1"/>
    <!-- Pin -->
    <circle cx="125" cy="60" r="8" fill="rgba(239,68,68,0.4)" stroke="#ef4444" stroke-width="1.5"/>
    <circle cx="125" cy="60" r="3" fill="#ef4444"/>
    <!-- Route -->
    <path d="M60 120 Q90 80 125 60 Q160 40 200 90" stroke="#34d399" stroke-width="2" fill="none" stroke-dasharray="5,4"/>
    <text x="20" y="145" fill="#34d399" font-family="monospace" font-size="10">Geolocation · Maps · Geocoding</text>
  </g>
  <text x="500" y="80" fill="#f0f0f5" font-family="Inter, sans-serif" font-size="28" font-weight="700" text-anchor="middle">Chapter 23</text>
  <text x="500" y="110" fill="#a0a0b8" font-family="Inter, sans-serif" font-size="16" text-anchor="middle">Maps &amp; Location</text>
  <text x="500" y="140" fill="#6b6b80" font-family="Inter, sans-serif" font-size="13" text-anchor="middle">⏱ ~30 min · Expert</text>
</svg>
