<svg xmlns="http://www.w3.org/2000/svg" viewBox="0 0 800 200">
  <defs><linearGradient id="bg" x1="0%" y1="0%" x2="100%" y2="100%"><stop offset="0%" style="stop-color:#1a1040"/><stop offset="100%" style="stop-color:#0f0c29"/></linearGradient><linearGradient id="accent" x1="0%" y1="0%" x2="100%" y2="0%"><stop offset="0%" style="stop-color:#fb923c"/><stop offset="100%" style="stop-color:#ef4444"/></linearGradient></defs>
  <rect width="800" height="200" rx="16" fill="url(#bg)"/><rect x="0" y="196" width="800" height="4" fill="url(#accent)"/>
  <g transform="translate(50,25)">
    <!-- Bell -->
    <path d="M60 25 Q60 10 75 10 Q90 10 90 25 L95 65 L55 65 Z" fill="rgba(251,146,60,0.2)" stroke="#fb923c" stroke-width="1.5"/>
    <rect x="50" y="65" width="50" height="6" rx="3" fill="rgba(251,146,60,0.4)"/>
    <circle cx="75" cy="75" r="5" fill="#fb923c"/>
    <circle cx="92" cy="15" r="8" fill="#ef4444" stroke="#1a1040" stroke-width="2"/>
    <text x="92" y="19" fill="white" font-family="Inter" font-size="9" font-weight="700" text-anchor="middle">3</text>
    <!-- Notification cards -->
    <rect x="120" y="10" width="160" height="38" rx="6" fill="rgba(255,255,255,0.05)" stroke="rgba(255,255,255,0.1)" stroke-width="1"/>
    <text x="135" y="35" fill="#a0a0b8" font-family="Inter" font-size="10">New message arrived</text>
    <rect x="120" y="55" width="160" height="38" rx="6" fill="rgba(255,255,255,0.05)" stroke="rgba(255,255,255,0.1)" stroke-width="1"/>
    <text x="135" y="80" fill="#a0a0b8" font-family="Inter" font-size="10">Background sync done</text>
    <rect x="120" y="100" width="160" height="38" rx="6" fill="rgba(255,255,255,0.05)" stroke="rgba(255,255,255,0.1)" stroke-width="1"/>
    <text x="135" y="125" fill="#a0a0b8" font-family="Inter" font-size="10">Scheduled reminder</text>
  </g>
  <text x="500" y="80" fill="#f0f0f5" font-family="Inter, sans-serif" font-size="28" font-weight="700" text-anchor="middle">Chapter 25</text>
  <text x="500" y="110" fill="#a0a0b8" font-family="Inter, sans-serif" font-size="16" text-anchor="middle">Notifications &amp; Background</text>
  <text x="500" y="140" fill="#6b6b80" font-family="Inter, sans-serif" font-size="13" text-anchor="middle">⏱ ~30 min · Expert</text>
</svg>
