<svg xmlns="http://www.w3.org/2000/svg" viewBox="0 0 800 200">
  <defs><linearGradient id="bg" x1="0%" y1="0%" x2="100%" y2="100%"><stop offset="0%" style="stop-color:#1a1040"/><stop offset="100%" style="stop-color:#0f0c29"/></linearGradient><linearGradient id="accent" x1="0%" y1="0%" x2="100%" y2="0%"><stop offset="0%" style="stop-color:#a855f7"/><stop offset="100%" style="stop-color:#22d3ee"/></linearGradient></defs>
  <rect width="800" height="200" rx="16" fill="url(#bg)"/><rect x="0" y="196" width="800" height="4" fill="url(#accent)"/>
  <g transform="translate(40,25)">
    <!-- Phone mockup -->
    <rect x="0" y="0" width="90" height="150" rx="12" fill="rgba(255,255,255,0.06)" stroke="rgba(255,255,255,0.12)" stroke-width="1.5"/>
    <rect x="30" y="6" width="30" height="4" rx="2" fill="rgba(255,255,255,0.1)"/>
    <rect x="8" y="18" width="74" height="14" rx="3" fill="rgba(168,85,247,0.3)"/>
    <rect x="8" y="38" width="74" height="40" rx="4" fill="rgba(99,102,241,0.15)"/>
    <rect x="8" y="84" width="35" height="25" rx="4" fill="rgba(34,211,238,0.15)"/>
    <rect x="47" y="84" width="35" height="25" rx="4" fill="rgba(52,211,153,0.15)"/>
    <rect x="8" y="115" width="74" height="28" rx="14" fill="rgba(168,85,247,0.3)"/>
    <text x="45" y="133" fill="#a855f7" font-family="Inter" font-size="9" font-weight="600" text-anchor="middle">Add Item</text>
    <!-- Architecture -->
    <rect x="120" y="10" width="85" height="30" rx="6" fill="rgba(168,85,247,0.15)" stroke="#a855f7" stroke-width="1"/>
    <text x="162" y="30" fill="#a855f7" font-family="Inter" font-size="10" text-anchor="middle">Views</text>
    <rect x="120" y="50" width="85" height="30" rx="6" fill="rgba(99,102,241,0.15)" stroke="#6366f1" stroke-width="1"/>
    <text x="162" y="70" fill="#6366f1" font-family="Inter" font-size="10" text-anchor="middle">ViewModels</text>
    <rect x="120" y="90" width="85" height="30" rx="6" fill="rgba(34,211,238,0.15)" stroke="#22d3ee" stroke-width="1"/>
    <text x="162" y="110" fill="#22d3ee" font-family="Inter" font-size="10" text-anchor="middle">Services</text>
    <rect x="120" y="130" width="85" height="30" rx="6" fill="rgba(52,211,153,0.15)" stroke="#34d399" stroke-width="1"/>
    <text x="162" y="150" fill="#34d399" font-family="Inter" font-size="10" text-anchor="middle">Models</text>
  </g>
  <text x="500" y="80" fill="#f0f0f5" font-family="Inter, sans-serif" font-size="28" font-weight="700" text-anchor="middle">Chapter 22</text>
  <text x="500" y="110" fill="#a0a0b8" font-family="Inter, sans-serif" font-size="16" text-anchor="middle">Real-World Project</text>
  <text x="500" y="140" fill="#6b6b80" font-family="Inter, sans-serif" font-size="13" text-anchor="middle">⏱ ~60 min · Expert</text>
</svg>
